<svg width="60" height="40" viewBox="0 0 60 40" fill="none" xmlns="http://www.w3.org/2000/svg">
<path d="M24.3926 7.46423C26.0969 7.46423 27.8026 7.4975 29.5053 7.457C32.2411 7.39189 34.8883 6.7669 37.5355 6.14335C41.2273 5.27386 44.797 4.06293 48.2084 2.40496C49.5742 1.74091 50.9195 1.03489 52.2751 0.347691C52.3768 0.295608 52.4741 0.234845 52.5802 0.189996C53.4098 -0.164457 53.6626 -0.0429302 54.1275 0.723845C54.9542 2.08812 55.8245 3.42636 56.6817 4.77184C57.7234 6.4081 58.7811 8.03425 59.8112 9.67775C60.1483 10.2159 60.0364 10.4286 59.4785 10.7686C56.6788 12.4743 53.7294 13.8965 50.6885 15.0987C47.1304 16.5049 43.5112 17.7607 39.7323 18.4769C39.6524 18.4928 39.5506 18.4841 39.4954 18.5304C39.3966 18.6128 39.2819 18.7199 39.2615 18.8327C39.2484 18.9051 39.3778 19.0483 39.4722 19.0845C40.6708 19.5532 41.8724 20.0133 43.0768 20.4676C43.4836 20.6209 43.626 20.9363 43.4604 21.4195C42.978 22.8359 42.4797 24.2465 42.0046 25.6643C41.3145 27.7288 40.6374 29.7976 39.9618 31.8679C39.7962 32.3743 39.4678 32.5927 38.9361 32.4669C36.0332 31.7855 33.0824 31.8216 30.1374 31.9533C26.9468 32.0951 23.8638 32.8647 20.7938 33.6995C18.0972 34.433 15.5212 35.4645 13.0426 36.7319C11.225 37.6607 9.44525 38.6662 7.66691 39.6688C6.76757 40.1766 6.52784 40.1462 5.96121 39.2564C5.09384 37.8951 4.23808 36.525 3.35472 35.1737C2.60648 34.0294 1.82483 32.9081 1.06496 31.771C0.749687 31.2979 0.460561 30.8075 0.145283 30.3358C-0.106067 29.9597 -0.0247053 29.6486 0.318177 29.407C0.730799 29.1148 1.15504 28.8341 1.59236 28.5809C4.42551 26.9446 7.31095 25.4082 10.3199 24.1163C11.5955 23.5679 12.9148 23.1238 14.2151 22.6333C14.4141 22.5581 14.6176 22.4974 14.8166 22.4207C15.5736 22.1241 15.5852 21.9259 14.9968 21.3443C14.1889 20.5457 13.371 19.7485 12.6532 18.8733C11.9355 17.9994 11.6362 16.9071 11.4372 15.8105C11.1873 14.426 11.3907 13.0892 12.0038 11.8204C12.7927 10.187 14.1148 9.10628 15.7203 8.3424C17.0424 7.71307 18.4648 7.48882 19.9148 7.46134C21.4069 7.43385 22.899 7.45555 24.3912 7.45555C24.3912 7.45844 24.3912 7.46278 24.3912 7.46568L24.3926 7.46423Z" fill="#6741FF"/>
<path d="M2.4308 23.6331L2.41918 21.7176C3.35048 22.1878 4.02898 22.4641 5.34676 22.5856C6.72555 22.7187 7.452 22.4525 7.46362 21.9346C7.46362 21.5136 7.28201 21.3197 5.53999 21.1751C3.28946 20.9942 1.99493 20.1508 1.99493 18.6693C1.99493 17.0301 3.55534 16.0666 5.84219 16.1997C7.34303 16.2836 8.41963 16.6699 9.12137 16.9593V18.8747C8.10435 18.38 7.01613 18.0559 5.84219 18.0067C4.80192 17.9459 4.12342 18.1875 4.1118 18.6447C4.1118 19.0787 4.4634 19.1988 5.73323 19.2712C8.32228 19.3912 9.64151 20.3432 9.58049 21.9824C9.51947 23.6693 7.82539 24.5735 5.33368 24.3926C3.97813 24.2957 3.41005 24.0063 2.42935 23.6331H2.4308Z" fill="#00E3A4"/>
<path d="M11.9647 24.2711L9.43524 18.163H11.6611L13.2346 21.6337L14.1659 18.163H16.0895L17.1792 21.6337L18.7759 18.163H21.0017L18.3153 24.2711H16.2101L15.1451 21.2706L14.0801 24.2711H11.9633H11.9647Z" fill="#00E3A4"/>
<path d="M20.3857 21.2475C20.3857 19.2843 21.8618 18.043 24.3913 18.043C26.9208 18.043 28.4086 19.2843 28.4086 21.2475C28.4086 23.2107 26.9324 24.3927 24.3913 24.3927C21.8502 24.3927 20.3857 23.2122 20.3857 21.2475ZM26.2902 21.2359C26.2902 20.4648 25.7091 19.85 24.3782 19.85C23.0474 19.85 22.5025 20.4648 22.5025 21.2359C22.5025 22.007 23.059 22.5857 24.3782 22.5857C25.6975 22.5857 26.2902 22.007 26.2902 21.2359Z" fill="#00E3A4"/>
<path d="M28.8923 21.2475C28.8923 19.2843 30.3685 18.043 32.898 18.043C35.4274 18.043 36.9152 19.2843 36.9152 21.2475C36.9152 23.2107 35.4391 24.3927 32.898 24.3927C30.3568 24.3927 28.8923 23.2122 28.8923 21.2475ZM34.7969 21.2359C34.7969 20.4648 34.2157 19.85 32.8849 19.85C31.554 19.85 31.0092 20.4648 31.0092 21.2359C31.0092 22.007 31.5657 22.5857 32.8849 22.5857C34.2041 22.5857 34.7969 22.007 34.7969 21.2359Z" fill="#00E3A4"/>
<path d="M37.3976 26.2952V18.1616H39.5144V19.0412C39.9256 18.5956 40.761 18.1008 41.7403 18.0415C44.0024 17.8606 45.3696 19.2582 45.3696 21.2229C45.3696 23.1876 44.0024 24.5721 41.7403 24.3913C40.7596 24.3305 39.9125 23.8603 39.5261 23.4277V26.2952H37.3961H37.3976ZM43.2542 21.2229C43.2542 20.4764 42.6614 19.753 41.3422 19.8499C40.4341 19.9107 39.4912 20.2955 39.4912 21.1997C39.4912 22.104 40.4225 22.5611 41.3422 22.6219C42.6614 22.7188 43.2542 21.9839 43.2542 21.2243V21.2229Z" fill="#00E3A4"/>
<path d="M45.8548 26.2952V18.1616H47.9717V19.0412C48.3829 18.5956 49.2183 18.1008 50.1975 18.0415C52.4597 17.8606 53.8269 19.2582 53.8269 21.2229C53.8269 23.1876 52.4597 24.5721 50.1975 24.3913C49.2168 24.3305 48.3698 23.8603 47.9833 23.4277V26.2952H45.8534H45.8548ZM51.7115 21.2229C51.7115 20.4764 51.1187 19.753 49.7995 19.8499C48.8914 19.9107 47.9485 20.2955 47.9485 21.1997C47.9485 22.104 48.8798 22.5611 49.7995 22.6219C51.1187 22.7188 51.7115 21.9839 51.7115 21.2243V21.2229Z" fill="#00E3A4"/>
<path d="M54.3121 17.0418C54.3121 16.5354 54.857 16.2229 55.4381 16.2229C56.0193 16.2229 56.5757 16.5368 56.5757 17.0418C56.5757 17.5467 56.0193 17.8736 55.4381 17.8736C54.857 17.8736 54.3121 17.5481 54.3121 17.0418ZM54.3732 24.2711V18.163H56.5031V24.2711H54.3732Z" fill="#00E3A4"/>
</svg>
